<svg xmlns="http://www.w3.org/2000/svg" viewBox="0 0 1920 1080"><defs><style>.cls-1{fill:#cce3ff;}.cls-1,.cls-2{fill-rule:evenodd;}.cls-10,.cls-2{fill:#fff;}.cls-3{fill:#404040;}.cls-4{fill:#262626;}.cls-5{fill:#333;}.cls-6{fill:#4d4d4d;}.cls-7{fill:#ced926;}.cls-8{fill:#d9a426;}.cls-9{fill:#1ac2e5;}.cls-11{fill:#f2dfb8;}.cls-12{fill:#b5924d;}.cls-13{fill:#fed10a;}.cls-14{fill:#24bbb1;}.cls-15{fill:#ef5098;}.cls-16{fill:#17a8e0;}.cls-17{fill:#93c83e;}.cls-18{fill:#0779a1;}.cls-19{fill:#424a60;}.cls-20{fill:#556080;}.cls-21{fill:#7fabda;}.cls-22{fill:#7383bf;}.cls-23{fill:#88c057;}.cls-24{fill:#61b872;}.cls-25{fill:#25ae88;}.cls-26{fill:#1a9172;}.cls-27{fill:#ecf0f1;}.cls-28{fill:#546a79;}.cls-29{fill:#ed7161;}.cls-30{fill:#f0c419;}.cls-31{fill:#4fba6f;}.cls-32{fill:#95a5a5;}.cls-33{fill:#bdc3c7;}.cls-34{fill:#8697cb;}.cls-35{fill:#e64c3c;}.cls-36,.cls-37,.cls-38,.cls-39{fill:none;stroke:#b5924d;stroke-miterlimit:10;}.cls-37{stroke-dasharray:11.69 11.69;}.cls-38{stroke-dasharray:12.41 12.41;}.cls-39{stroke-dasharray:12.19 12.19;}.cls-40{fill:#326690;}</style></defs><title>002_sin</title><g id="Слой_2" data-name="Слой 2"><path class="cls-1" d="M918.29,742.95a40.79,40.79,0,0,1-68.35,30,63.14,63.14,0,0,1-87.1,24.63A63.31,63.31,0,0,1,704.12,800a73.54,73.54,0,0,1-106.26-14.39A57.3,57.3,0,0,1,575,790.33c-1.48,0-2.93,0-4.38-.19a57.59,57.59,0,0,1-80.67,7.27,49.79,49.79,0,0,1-64.28-17.58,39.84,39.84,0,1,1,11.6-66.45,49.81,49.81,0,0,1,52.68-5,57.27,57.27,0,0,1,36.67-13.17c1.48,0,2.93,0,4.38.17A57.65,57.65,0,0,1,610.13,687a73.44,73.44,0,0,1,94-1,63.21,63.21,0,0,1,58.73,2.33A63.16,63.16,0,0,1,850,712.91a40.77,40.77,0,0,1,68.33,30Z"/><path class="cls-2" d="M918.72,724.47a36.69,36.69,0,0,1-58.32,29.64,61.58,61.58,0,0,1-94.3-10.22A74.78,74.78,0,0,1,751,745.41a73.82,73.82,0,0,1-50.65-20,107.41,107.41,0,0,1-104.64-15.18,66.64,66.64,0,0,1-55.46,8.89A66.26,66.26,0,0,1,449.39,743a46.45,46.45,0,1,1-32.62-79.5c1.29,0,2.57,0,3.84.17a66.29,66.29,0,0,1,80.12-41.57,66.44,66.44,0,0,1,57.75-33.47c.71,0,1.43,0,2.14,0a107.31,107.31,0,0,1,204.6,9.65,74.38,74.38,0,0,1,56.51,50.15,61.62,61.62,0,0,1,53.53,40,37.24,37.24,0,0,1,6.77-.62A36.69,36.69,0,0,1,918.72,724.47Z"/><rect class="cls-3" x="601.17" y="460.12" width="118.32" height="274.24"/><rect class="cls-4" x="606.81" y="470.06" width="107.05" height="256.94"/><rect class="cls-5" x="609.57" y="473.81" width="101.42" height="34.82"/><rect class="cls-6" x="609.57" y="489.77" width="101.42" height="2.9"/><rect class="cls-7" x="638.43" y="489.77" width="10.89" height="2.9" rx="1.16" ry="1.16"/><rect class="cls-8" x="649.33" y="489.77" width="2.81" height="2.9" rx="1.12" ry="1.12"/><rect class="cls-9" x="613.34" y="489.77" width="25.1" height="2.9" rx="1.16" ry="1.16"/><rect class="cls-5" x="609.57" y="512.33" width="101.42" height="34.82"/><rect class="cls-6" x="609.57" y="528.29" width="101.42" height="2.9"/><rect class="cls-7" x="638.43" y="528.29" width="10.89" height="2.9" rx="1.16" ry="1.16"/><rect class="cls-8" x="649.33" y="528.29" width="2.81" height="2.9" rx="1.12" ry="1.12"/><rect class="cls-9" x="613.34" y="528.29" width="25.1" height="2.9" rx="1.16" ry="1.16"/><rect class="cls-5" x="609.57" y="550.85" width="101.42" height="34.82"/><rect class="cls-6" x="609.56" y="566.82" width="101.42" height="2.9"/><rect class="cls-7" x="668.2" y="566.82" width="10.89" height="2.9" rx="1.16" ry="1.16"/><rect class="cls-8" x="681.34" y="566.82" width="2.81" height="2.9" rx="1.12" ry="1.12"/><rect class="cls-9" x="613.32" y="566.82" width="25.1" height="2.9" rx="1.16" ry="1.16"/><rect class="cls-5" x="609.53" y="589.4" width="101.42" height="34.82"/><rect class="cls-6" x="609.53" y="605.36" width="101.42" height="2.9"/><rect class="cls-7" x="638.39" y="605.36" width="10.89" height="2.9" rx="1.16" ry="1.16"/><rect class="cls-8" x="649.28" y="605.36" width="2.81" height="2.9" rx="1.12" ry="1.12"/><rect class="cls-9" x="613.29" y="605.36" width="25.1" height="2.9" rx="1.16" ry="1.16"/><rect class="cls-5" x="609.57" y="627.95" width="101.42" height="34.82"/><rect class="cls-6" x="609.57" y="643.91" width="101.42" height="2.9"/><rect class="cls-7" x="638.43" y="643.91" width="10.89" height="2.9" rx="1.16" ry="1.16"/><rect class="cls-8" x="649.33" y="643.91" width="2.81" height="2.9" rx="1.12" ry="1.12"/><rect class="cls-9" x="613.34" y="643.91" width="25.1" height="2.9" rx="1.16" ry="1.16"/><rect class="cls-3" x="609.7" y="666.5" width="101.42" height="56.04"/><rect class="cls-3" x="601.17" y="739.34" width="118.32" height="7.41"/><rect class="cls-4" x="606.81" y="734.36" width="107.05" height="4.98"/><path class="cls-2" d="M657.3,720.25a39,39,0,0,1-71,22.15,48.85,48.85,0,0,1-18.4-.88,50.5,50.5,0,1,1-30.66-72.65A49,49,0,0,1,627,682.26,38.93,38.93,0,0,1,657.3,720.25Z"/><path class="cls-1" d="M558.31,409.11a14.37,14.37,0,0,1-24.09,10.59,22.25,22.25,0,0,1-30.7,8.68,22.31,22.31,0,0,1-20.7.83,25.92,25.92,0,0,1-37.45-5.07,20.2,20.2,0,0,1-8.07,1.67c-.52,0-1,0-1.54-.07a20.3,20.3,0,0,1-28.43,2.56,17.55,17.55,0,0,1-22.65-6.2,14,14,0,1,1,4.09-23.42,17.55,17.55,0,0,1,18.56-1.75,20.18,20.18,0,0,1,12.92-4.64c.52,0,1,0,1.54.06a20.32,20.32,0,0,1,27.9-3,25.88,25.88,0,0,1,33.12-.37,22.28,22.28,0,0,1,20.7.82,22.26,22.26,0,0,1,30.7,8.69,14.37,14.37,0,0,1,24.08,10.59Z"/><path class="cls-2" d="M558.46,402.6A12.93,12.93,0,0,1,537.91,413a21.7,21.7,0,0,1-33.23-3.6,26.35,26.35,0,0,1-5.31.54,26,26,0,0,1-17.85-7,37.85,37.85,0,0,1-36.88-5.35,23.48,23.48,0,0,1-19.55,3.13,23.35,23.35,0,0,1-32,8.4,16.37,16.37,0,1,1-11.49-28c.45,0,.91,0,1.35.06a23.36,23.36,0,0,1,28.24-14.65,23.42,23.42,0,0,1,20.35-11.8c.25,0,.5,0,.76,0a37.82,37.82,0,0,1,72.11,3.4,26.21,26.21,0,0,1,19.92,17.67,21.71,21.71,0,0,1,18.87,14.09,13.12,13.12,0,0,1,2.38-.22A12.93,12.93,0,0,1,558.46,402.6Z"/><rect class="cls-3" x="446.55" y="309.43" width="41.7" height="96.65"/><rect class="cls-4" x="448.54" y="312.94" width="37.73" height="90.55"/><rect class="cls-5" x="449.51" y="314.26" width="35.74" height="12.27"/><rect class="cls-6" x="449.51" y="319.88" width="35.74" height="1.02"/><path class="cls-7" d="M463,320.91H460.2a.51.51,0,0,1-.51-.51h0a.51.51,0,0,1,.51-.51H463a.51.51,0,0,1,.51.51h0A.51.51,0,0,1,463,320.91Z"/><path class="cls-8" d="M464,320.91h0a.5.5,0,0,0,.49-.49v0a.5.5,0,0,0-.49-.5h0a.49.49,0,0,0-.49.5v0A.49.49,0,0,0,464,320.91Z"/><path class="cls-9" d="M459.17,320.91h-7.82a.51.51,0,0,1-.51-.51h0a.51.51,0,0,1,.51-.51h7.82a.51.51,0,0,1,.51.51h0A.51.51,0,0,1,459.17,320.91Z"/><rect class="cls-5" x="449.51" y="327.83" width="35.74" height="12.27"/><rect class="cls-6" x="449.51" y="333.46" width="35.74" height="1.02"/><path class="cls-7" d="M463,334.48H460.2a.51.51,0,0,1-.51-.51h0a.51.51,0,0,1,.51-.51H463a.51.51,0,0,1,.51.51h0A.51.51,0,0,1,463,334.48Z"/><path class="cls-8" d="M464,334.48h0a.5.5,0,0,0,.49-.5v0a.5.5,0,0,0-.49-.49h0a.49.49,0,0,0-.49.49v0A.49.49,0,0,0,464,334.48Z"/><path class="cls-9" d="M459.17,334.48h-7.82a.51.51,0,0,1-.51-.51h0a.51.51,0,0,1,.51-.51h7.82a.51.51,0,0,1,.51.51h0A.51.51,0,0,1,459.17,334.48Z"/><rect class="cls-5" x="449.51" y="341.41" width="35.74" height="12.27"/><rect class="cls-6" x="449.51" y="347.04" width="35.74" height="1.02"/><path class="cls-7" d="M473.5,348.06h-2.82a.51.51,0,0,1-.51-.51h0a.51.51,0,0,1,.51-.51h2.82a.51.51,0,0,1,.51.51h0A.51.51,0,0,1,473.5,348.06Z"/><path class="cls-8" d="M475.3,348.06h0a.5.5,0,0,0,.5-.5v0a.5.5,0,0,0-.5-.49h0a.5.5,0,0,0-.49.49v0A.5.5,0,0,0,475.3,348.06Z"/><path class="cls-9" d="M459.17,348.06h-7.82a.51.51,0,0,1-.51-.51h0a.51.51,0,0,1,.51-.51h7.82a.51.51,0,0,1,.51.51h0A.51.51,0,0,1,459.17,348.06Z"/><rect class="cls-5" x="449.5" y="355" width="35.74" height="12.27"/><rect class="cls-6" x="449.5" y="360.62" width="35.74" height="1.02"/><path class="cls-7" d="M463,361.64h-2.82a.51.51,0,0,1-.51-.51h0a.51.51,0,0,1,.51-.51H463a.51.51,0,0,1,.51.51h0A.51.51,0,0,1,463,361.64Z"/><path class="cls-8" d="M464,361.64h0a.5.5,0,0,0,.5-.5v0a.5.5,0,0,0-.5-.5h0a.5.5,0,0,0-.49.5v0A.5.5,0,0,0,464,361.64Z"/><path class="cls-9" d="M459.16,361.64h-7.82a.51.51,0,0,1-.51-.51h0a.51.51,0,0,1,.51-.51h7.82a.51.51,0,0,1,.51.51h0A.51.51,0,0,1,459.16,361.64Z"/><rect class="cls-5" x="449.51" y="368.58" width="35.74" height="12.27"/><rect class="cls-6" x="449.51" y="374.2" width="35.74" height="1.02"/><path class="cls-7" d="M463,375.23H460.2a.51.51,0,0,1-.51-.51h0a.51.51,0,0,1,.51-.51H463a.51.51,0,0,1,.51.51h0A.51.51,0,0,1,463,375.23Z"/><path class="cls-8" d="M464,375.23h0a.5.5,0,0,0,.49-.49v0a.5.5,0,0,0-.49-.49h0a.49.49,0,0,0-.49.49v0A.49.49,0,0,0,464,375.23Z"/><path class="cls-9" d="M459.17,375.23h-7.82a.51.51,0,0,1-.51-.51h0a.51.51,0,0,1,.51-.51h7.82a.51.51,0,0,1,.51.51h0A.51.51,0,0,1,459.17,375.23Z"/><rect class="cls-3" x="449.56" y="382.17" width="35.74" height="19.75"/><rect class="cls-3" x="446.55" y="407.84" width="41.7" height="2.61"/><rect class="cls-4" x="448.54" y="406.08" width="37.73" height="1.76"/><path class="cls-2" d="M466.33,401.11a13.73,13.73,0,0,1-25,7.81,17.22,17.22,0,0,1-6.49-.31A17.8,17.8,0,1,1,424,383a17.27,17.27,0,0,1,31.64,4.72A13.72,13.72,0,0,1,466.33,401.11Z"/><path class="cls-1" d="M919.59,421.79a8.8,8.8,0,0,1-14.75,6.48A13.62,13.62,0,0,1,886,433.59a13.66,13.66,0,0,1-12.67.51,15.87,15.87,0,0,1-22.93-3.1,12.36,12.36,0,0,1-4.94,1c-.32,0-.63,0-.95,0a12.43,12.43,0,0,1-17.41,1.57,10.74,10.74,0,0,1-13.87-3.79,8.6,8.6,0,1,1,2.5-14.34,10.75,10.75,0,0,1,11.37-1.07,12.36,12.36,0,0,1,7.91-2.84c.32,0,.63,0,.95,0a12.44,12.44,0,0,1,17.08-1.82,15.85,15.85,0,0,1,20.28-.23A13.64,13.64,0,0,1,886,410a13.63,13.63,0,0,1,18.8,5.32,8.8,8.8,0,0,1,14.74,6.48Z"/><path class="cls-2" d="M919.68,417.8a7.92,7.92,0,0,1-12.58,6.4A13.29,13.29,0,0,1,886.75,422a16.13,16.13,0,0,1-3.25.33A15.93,15.93,0,0,1,872.56,418,23.18,23.18,0,0,1,850,414.74a14.38,14.38,0,0,1-12,1.92,14.3,14.3,0,0,1-19.61,5.14,10,10,0,1,1-7-17.15c.28,0,.56,0,.83,0a14.3,14.3,0,0,1,17.29-9,14.34,14.34,0,0,1,12.46-7.22h.46a23.16,23.16,0,0,1,44.15,2.08,16,16,0,0,1,12.19,10.82A13.3,13.3,0,0,1,910.3,410a8,8,0,0,1,1.46-.13A7.92,7.92,0,0,1,919.68,417.8Z"/><rect class="cls-3" x="851.16" y="360.76" width="25.53" height="59.18"/><rect class="cls-4" x="852.37" y="362.91" width="23.1" height="55.44"/><rect class="cls-5" x="852.97" y="363.72" width="21.88" height="7.51"/><rect class="cls-6" x="852.97" y="367.16" width="21.88" height="0.63"/><path class="cls-7" d="M861.23,367.79h-1.72a.31.31,0,0,1-.31-.31h0a.31.31,0,0,1,.31-.31h1.72a.31.31,0,0,1,.31.31h0A.31.31,0,0,1,861.23,367.79Z"/><path class="cls-8" d="M861.85,367.79h0a.3.3,0,0,0,.3-.3v0a.3.3,0,0,0-.3-.3h0a.3.3,0,0,0-.3.3v0A.3.3,0,0,0,861.85,367.79Z"/><path class="cls-9" d="M858.88,367.79h-4.79a.31.31,0,0,1-.31-.31h0a.31.31,0,0,1,.31-.31h4.79a.31.31,0,0,1,.31.31h0A.31.31,0,0,1,858.88,367.79Z"/><rect class="cls-5" x="852.97" y="372.03" width="21.88" height="7.51"/><rect class="cls-6" x="852.97" y="375.47" width="21.88" height="0.63"/><path class="cls-7" d="M861.23,376.1h-1.72a.31.31,0,0,1-.31-.31h0a.31.31,0,0,1,.31-.31h1.72a.31.31,0,0,1,.31.31h0A.31.31,0,0,1,861.23,376.1Z"/><path class="cls-8" d="M861.85,376.1h0a.3.3,0,0,0,.3-.3v0a.3.3,0,0,0-.3-.3h0a.3.3,0,0,0-.3.3v0A.3.3,0,0,0,861.85,376.1Z"/><path class="cls-9" d="M858.88,376.1h-4.79a.31.31,0,0,1-.31-.31h0a.31.31,0,0,1,.31-.31h4.79a.31.31,0,0,1,.31.31h0A.31.31,0,0,1,858.88,376.1Z"/><rect class="cls-5" x="852.97" y="380.34" width="21.88" height="7.51"/><rect class="cls-6" x="852.97" y="383.79" width="21.88" height="0.63"/><path class="cls-7" d="M867.66,384.41h-1.72a.31.31,0,0,1-.31-.31h0a.31.31,0,0,1,.31-.31h1.72a.31.31,0,0,1,.31.31h0A.31.31,0,0,1,867.66,384.41Z"/><path class="cls-8" d="M868.76,384.41h0a.3.3,0,0,0,.3-.3v0a.3.3,0,0,0-.3-.3h0a.3.3,0,0,0-.3.3v0A.3.3,0,0,0,868.76,384.41Z"/><path class="cls-9" d="M858.88,384.41h-4.79a.31.31,0,0,1-.31-.31h0a.31.31,0,0,1,.31-.31h4.79a.31.31,0,0,1,.31.31h0A.31.31,0,0,1,858.88,384.41Z"/><rect class="cls-5" x="852.96" y="388.66" width="21.88" height="7.51"/><rect class="cls-6" x="852.96" y="392.1" width="21.88" height="0.63"/><path class="cls-7" d="M861.23,392.73H859.5a.31.31,0,0,1-.31-.31h0a.31.31,0,0,1,.31-.31h1.72a.31.31,0,0,1,.31.31h0A.31.31,0,0,1,861.23,392.73Z"/><path class="cls-8" d="M861.84,392.73h0a.3.3,0,0,0,.3-.3v0a.3.3,0,0,0-.3-.3h0a.3.3,0,0,0-.3.3v0A.3.3,0,0,0,861.84,392.73Z"/><path class="cls-9" d="M858.87,392.73h-4.79a.31.31,0,0,1-.31-.31h0a.31.31,0,0,1,.31-.31h4.79a.31.31,0,0,1,.31.31h0A.31.31,0,0,1,858.87,392.73Z"/><rect class="cls-5" x="852.97" y="396.98" width="21.88" height="7.51"/><rect class="cls-6" x="852.97" y="400.42" width="21.88" height="0.63"/><path class="cls-7" d="M861.23,401h-1.72a.31.31,0,0,1-.31-.31h0a.31.31,0,0,1,.31-.31h1.72a.31.31,0,0,1,.31.31h0A.31.31,0,0,1,861.23,401Z"/><path class="cls-8" d="M861.85,401h0a.3.3,0,0,0,.3-.3v0a.3.3,0,0,0-.3-.3h0a.3.3,0,0,0-.3.3v0A.3.3,0,0,0,861.85,401Z"/><path class="cls-9" d="M858.88,401h-4.79a.31.31,0,0,1-.31-.31h0a.31.31,0,0,1,.31-.31h4.79a.31.31,0,0,1,.31.31h0A.31.31,0,0,1,858.88,401Z"/><rect class="cls-3" x="853" y="405.3" width="21.88" height="12.09"/><rect class="cls-3" x="851.16" y="421.01" width="25.53" height="1.6"/><rect class="cls-4" x="852.37" y="419.94" width="23.1" height="1.07"/><path class="cls-2" d="M863.27,416.89a8.41,8.41,0,0,1-15.33,4.78,10.56,10.56,0,0,1-1.49.11,10.44,10.44,0,0,1-2.48-.3,10.9,10.9,0,1,1-6.62-15.68,10.58,10.58,0,0,1,19.37,2.89A8.4,8.4,0,0,1,863.27,416.89Z"/><path class="cls-2" d="M418.7,807.55H365a3.81,3.81,0,0,1-3.81-3.81h0a3.81,3.81,0,0,1,3.81-3.81H418.7a3.81,3.81,0,0,1,3.81,3.81h0A3.81,3.81,0,0,1,418.7,807.55Z"/><path class="cls-2" d="M361.66,779.15h-21a3.81,3.81,0,0,1-3.81-3.81h0a3.81,3.81,0,0,1,3.81-3.81h21a3.81,3.81,0,0,1,3.81,3.81h0A3.81,3.81,0,0,1,361.66,779.15Z"/><path class="cls-2" d="M543.32,573.53H489.6a3.81,3.81,0,0,1-3.81-3.81h0a3.81,3.81,0,0,1,3.81-3.81h53.72a3.81,3.81,0,0,1,3.81,3.81h0A3.81,3.81,0,0,1,543.32,573.53Z"/><path class="cls-2" d="M807.53,438H793.32a1,1,0,0,1-1-1h0a1,1,0,0,1,1-1h14.22a1,1,0,0,1,1,1h0A1,1,0,0,1,807.53,438Z"/><path class="cls-2" d="M792.44,430.52h-5.55a1,1,0,0,1-1-1h0a1,1,0,0,1,1-1h5.55a1,1,0,0,1,1,1h0A1,1,0,0,1,792.44,430.52Z"/><rect class="cls-10" x="336.4" y="431.58" width="40.72" height="5.06" rx="1.01" ry="1.01"/><rect class="cls-10" x="320.28" y="412.73" width="18.98" height="5.06" rx="1.01" ry="1.01"/><path class="cls-11" d="M659.7,275.62a69.31,69.31,0,0,1,81.46,38.59l-18.76-8.62a4.79,4.79,0,0,0-4.17,8.63l.16.08,28.78,13.26a4.78,4.78,0,0,0,6.28-2.19l.26-.51,13.1-28.46a4.8,4.8,0,1,0-8.71-4l-8.21,17.85a78.83,78.83,0,0,0-92.72-43.86,78.86,78.86,0,0,0-56,58,4.77,4.77,0,0,0,2.5,5.36,4.19,4.19,0,0,0,1.08.39,4.8,4.8,0,0,0,5.75-3.57,69.27,69.27,0,0,1,49.18-51Zm0,0"/><path class="cls-11" d="M401.64,572.91a69.31,69.31,0,0,1,18.93-88.13L416.47,505a4.79,4.79,0,0,0,9.36,2.09l0-.17,6.33-31.05a4.78,4.78,0,0,0-3.57-5.61l-.55-.13-30.71-6.24a4.8,4.8,0,1,0-1.92,9.4l19.26,3.9a78.83,78.83,0,0,0-21.48,100.3,78.86,78.86,0,0,0,69.31,41.22,4.77,4.77,0,0,0,4.65-3.66,4.19,4.19,0,0,0,.13-1.14,4.8,4.8,0,0,0-4.79-4.78,69.27,69.27,0,0,1-60.88-36.21Zm0,0"/><path class="cls-11" d="M895.17,540.15a69.31,69.31,0,0,1-58.45,68.62l13.2-15.87a4.79,4.79,0,0,0-7.25-6.27l-.12.13L822.27,611.1a4.78,4.78,0,0,0,.48,6.64l.42.38,24.08,20.05a4.8,4.8,0,1,0,6.14-7.37l-15.1-12.57a78.83,78.83,0,0,0,66.46-78.13A78.86,78.86,0,0,0,863.26,471a4.77,4.77,0,0,0-5.83,1,4.19,4.19,0,0,0-.65.94,4.8,4.8,0,0,0,2,6.48,69.27,69.27,0,0,1,36.44,60.75Zm0,0"/><path class="cls-12" d="M614,376.31h7.38l4.39,14.58,4.86-14.65h6l4.86,14.65,4.39-14.58h7.24l-8.42,25.38h-6.08l-5.08-14.51-5,14.51h-6.08Z"/><path class="cls-12" d="M652.31,391.78c0-5.69,4.07-10.19,9.83-10.19,6.73,0,9.83,4.93,9.83,10.65,0,.43,0,.94,0,1.4h-13a4,4,0,0,0,4.21,3.2,5.88,5.88,0,0,0,4.32-2l3.78,3.13a10.2,10.2,0,0,1-8.46,4C656.63,402,652.31,397.9,652.31,391.78Zm13.25-1.62c-.25-2.16-1.51-3.53-3.38-3.53s-3,1.4-3.38,3.53Z"/><path class="cls-12" d="M681.72,399.13v2.38h-6.84V375.23h6.84v9.4a7.15,7.15,0,0,1,5.9-3c4.64,0,8.64,3.85,8.64,10.15s-4,10.19-8.6,10.19A7.31,7.31,0,0,1,681.72,399.13Zm7.81-7.42a4.11,4.11,0,0,0-4-4.39c-2.2,0-4,1.84-4,4.46a4.12,4.12,0,0,0,4,4.43C687.77,396.21,689.53,394.41,689.53,391.71Z"/><path class="cls-12" d="M601.13,441l3.89-4.64a13,13,0,0,0,8.17,3c1.87,0,2.88-.65,2.88-1.8s-.83-1.62-4.25-2.41c-5.36-1.22-9.5-2.74-9.5-8,0-4.68,3.71-8.06,9.75-8.06a15.86,15.86,0,0,1,10.37,3.35L619,427.35a12.63,12.63,0,0,0-7.05-2.48c-1.69,0-2.52.72-2.52,1.69,0,1.15.86,1.66,4.36,2.45,5.79,1.26,9.39,3.13,9.39,7.92,0,5.15-4.07,8.21-10.19,8.21A17.6,17.6,0,0,1,601.13,441Z"/><path class="cls-12" d="M625.33,435c0-5.69,4.07-10.19,9.83-10.19,6.73,0,9.83,4.93,9.83,10.65,0,.43,0,.94,0,1.4h-13a4,4,0,0,0,4.21,3.2,5.88,5.88,0,0,0,4.32-2l3.78,3.13a10.2,10.2,0,0,1-8.46,4C629.64,445.17,625.33,441.1,625.33,435Zm13.25-1.62c-.25-2.16-1.51-3.53-3.38-3.53s-3,1.4-3.38,3.53Z"/><path class="cls-12" d="M647.9,425.23h6.84v3.92c1.12-2.66,2.92-4.39,6.16-4.25v7.2h-.58c-3.56,0-5.58,2.05-5.58,6.55v6H647.9Z"/><path class="cls-12" d="M661.83,425.23H669l3.74,11.37,3.74-11.37h7.09l-7.78,19.62H669.6Z"/><path class="cls-12" d="M683.86,435c0-5.69,4.07-10.19,9.83-10.19,6.73,0,9.83,4.93,9.83,10.65,0,.43,0,.94,0,1.4h-13a4,4,0,0,0,4.21,3.2,5.88,5.88,0,0,0,4.32-2l3.78,3.13a10.2,10.2,0,0,1-8.46,4C688.18,445.17,683.86,441.1,683.86,435Zm13.25-1.62c-.25-2.16-1.51-3.53-3.38-3.53s-3,1.4-3.38,3.53Z"/><path class="cls-12" d="M706.43,425.23h6.84v3.92c1.12-2.66,2.92-4.39,6.16-4.25v7.2h-.58c-3.56,0-5.58,2.05-5.58,6.55v6h-6.84Z"/><path class="cls-11" d="M263.94,518.92a5.69,5.69,0,0,0-6,0,2.3,2.3,0,0,0,0,4.06l30.5,20.79H187.79c-2.35,0-4.22,1.28-4.22,2.88s1.87,2.91,4.22,2.91H288.42l-30.5,20.74a2.33,2.33,0,0,0,0,4.1,5.69,5.69,0,0,0,6,0l37.71-25.71a2.26,2.26,0,0,0,0-4Zm0,0"/><rect class="cls-11" x="36.88" y="543.76" width="154.1" height="5.81"/><path class="cls-12" d="M47.7,497.59c3.46,0,5.73,1.6,5.73,4.29a4,4,0,0,1-2.72,3.87,4.18,4.18,0,0,1,3.36,4.32c0,2.91-2.43,4.67-6.4,4.67H38.29V497.59Zm-1.18,6.88c1.38,0,2-.74,2-1.73,0-.83-.58-1.57-2-1.57H43.09v3.3Zm.42,6.46c1.5,0,2.21-.7,2.21-1.73s-.67-1.66-2.34-1.66H43.09v3.39Z"/><path class="cls-12" d="M62.06,506l-5.79-8.45h5.22l3.2,5,3.23-5H73l-5.79,8.35,6,8.8H68l-3.46-5.34-3.46,5.34H56Z"/><path class="cls-12" d="M74.07,506.19a9.29,9.29,0,1,1,9.25,8.93A9,9,0,0,1,74.07,506.19Zm13.76,0a4.56,4.56,0,0,0-4.51-4.74,4.41,4.41,0,0,0-4.45,4.74,4.56,4.56,0,0,0,4.51,4.74A4.41,4.41,0,0,0,87.82,506.19Z"/><path class="cls-12" d="M98.39,514.74l-.35,4h-4.1v-8.19h1.86c1.44-3.07,1.66-7.39,1.66-11.52v-1.47h14v13h2.34l-.58,8.19h-4.1v-4Zm8.22-4.16v-8.83H102v.38a22.92,22.92,0,0,1-1.28,8.45Z"/><path class="cls-12" d="M131.66,514.74H126.8v-5.5h-2.62l-3.62,5.5h-5.63l4.38-6.3a5.13,5.13,0,0,1-3.58-5.12c0-3.42,2.46-5.73,6.94-5.73h9Zm-4.86-9v-4.32h-3.33c-1.76,0-2.82.77-2.82,2.18s1.09,2.14,2.85,2.14Z"/><path class="cls-12" d="M136,514.74V497.59h4.86v13h5.47v-13h4.86v13h5.44v-13h4.9v13h2.34l-.58,8.19h-4.1v-4Z"/><path class="cls-12" d="M182.51,514.74h-4.7v-10l-6.69,10h-4.58V497.59h4.7v10l6.69-10h4.58Z"/><path class="cls-12" d="M202.83,514.74h-4.7v-10l-6.69,10h-4.58V497.59h4.7v10l6.69-10h4.58Zm-13.21-23.65,2.85-.51a2.56,2.56,0,0,0,5.06,0l2.85.51c-.45,3.07-2.43,4.86-5.38,4.86S190.06,494.16,189.62,491.09Z"/><path class="cls-12" d="M37.23,576.85a10.58,10.58,0,0,1,7.23-2.69c3.71,0,6.53,2,6.53,4.64a4,4,0,0,1-2.62,3.87,4,4,0,0,1,3,4c0,3-2.85,5.25-6.91,5.25a11.34,11.34,0,0,1-7.81-2.72l2.24-3.1a8,8,0,0,0,5.15,2c1.47,0,2.53-.83,2.53-1.82s-1-1.76-2.85-1.76h-2v-3h2c1.54,0,2.46-.8,2.46-1.76S45.26,578,44,578a6.64,6.64,0,0,0-4.64,1.79Z"/><path class="cls-12" d="M54,586.55c0-3.74,2.85-5.47,6.91-5.47a12.21,12.21,0,0,1,4.19.7v-.29c0-2-1.25-3.14-3.68-3.14a12.61,12.61,0,0,0-4.74.93l-1.22-3.71a15.13,15.13,0,0,1,6.66-1.38c2.66,0,4.58.7,5.79,1.92a7.47,7.47,0,0,1,1.86,5.47v10h-4.7v-1.86a6.59,6.59,0,0,1-5.18,2.18C56.66,591.86,54,590,54,586.55Zm11.17-1.06v-.86a7.53,7.53,0,0,0-3.1-.64c-2.08,0-3.36.83-3.36,2.43,0,1.31,1.09,2.08,2.66,2.08C63.63,588.5,65.17,587.25,65.17,585.49Z"/><path class="cls-12" d="M89.55,591.54H84.69v-13H78.83v13H74V574.39H89.55Z"/><path class="cls-12" d="M93.9,574.39h4.86v2.46a6.3,6.3,0,0,1,5.34-2.78c4,0,7.81,3.14,7.81,8.93s-3.74,8.86-7.81,8.86a6.59,6.59,0,0,1-5.34-2.56v7.36H93.9Zm13.15,8.54c0-2.85-1.92-4.74-4.19-4.74s-4.16,1.89-4.16,4.8,1.89,4.74,4.16,4.74S107.06,585.87,107.06,582.93Z"/><path class="cls-12" d="M114.67,583a9.29,9.29,0,1,1,9.25,8.93A9,9,0,0,1,114.67,583Zm13.76,0a4.56,4.56,0,0,0-4.51-4.74,4.41,4.41,0,0,0-4.45,4.74,4.56,4.56,0,0,0,4.51,4.74A4.41,4.41,0,0,0,128.43,583Z"/><path class="cls-12" d="M135.92,583a8.8,8.8,0,0,1,9-8.93,8.44,8.44,0,0,1,6.82,3L148.88,580a5.24,5.24,0,0,0-4-1.7c-2.43,0-4.16,2.14-4.16,4.74s1.7,4.74,4.35,4.74A5.43,5.43,0,0,0,149,585.9l2.85,2.88a8.64,8.64,0,0,1-7,3.14A8.77,8.77,0,0,1,135.92,583Z"/><path class="cls-12" d="M1223,281.33l3.28-3.92a11.56,11.56,0,0,0,7.52,3.06c2.27,0,3.64-.9,3.64-2.45s-.86-2.12-5.08-3.2c-5.08-1.3-8.35-2.7-8.35-7.78,0-4.57,3.67-7.59,8.82-7.59a14.59,14.59,0,0,1,9.36,3.2l-2.88,4.18a11.82,11.82,0,0,0-6.55-2.48c-2.12,0-3.24,1-3.24,2.27,0,1.66,1.08,2.2,5.44,3.31,5.11,1.33,8,3.17,8,7.63,0,5-3.82,7.81-9.25,7.81A16,16,0,0,1,1223,281.33Z"/><path class="cls-12" d="M1247.95,279.53v-9.14h-2.3v-4.68h2.3v-4.93h5.47v4.93H1258v4.68h-4.54v8.24c0,1.26.54,1.87,1.76,1.87a5.57,5.57,0,0,0,2.7-.68v4.39a8.06,8.06,0,0,1-4.32,1.12C1250.21,285.33,1247.95,284,1247.95,279.53Z"/><path class="cls-12" d="M1260.83,279.39c0-4.21,3.2-6.16,7.78-6.16a13.7,13.7,0,0,1,4.71.79v-.32c0-2.27-1.4-3.53-4.14-3.53a14.19,14.19,0,0,0-5.33,1l-1.37-4.18a17,17,0,0,1,7.49-1.55c3,0,5.15.79,6.52,2.16a8.41,8.41,0,0,1,2.09,6.15V285h-5.29v-2.09a7.42,7.42,0,0,1-5.83,2.45C1263.82,285.37,1260.83,283.28,1260.83,279.39Zm12.56-1.19v-1a8.48,8.48,0,0,0-3.49-.72c-2.34,0-3.78.94-3.78,2.74,0,1.48,1.22,2.34,3,2.34C1271.67,281.59,1273.4,280.18,1273.4,278.2Z"/><path class="cls-12" d="M1284,279.53v-9.14h-2.3v-4.68h2.3v-4.93h5.47v4.93H1294v4.68h-4.54v8.24c0,1.26.54,1.87,1.76,1.87a5.57,5.57,0,0,0,2.7-.68v4.39a8.06,8.06,0,0,1-4.32,1.12C1286.28,285.33,1284,284,1284,279.53Z"/><path class="cls-12" d="M1298.17,258.73h5.76v4.86h-5.76Zm.14,7h5.47V285h-5.47Z"/><path class="cls-12" d="M1308,275.39a9.91,9.91,0,0,1,10.12-10,9.49,9.49,0,0,1,7.67,3.38l-3.2,3.24a5.9,5.9,0,0,0-4.5-1.91c-2.74,0-4.68,2.41-4.68,5.33s1.91,5.33,4.9,5.33a6.11,6.11,0,0,0,4.43-2.05l3.2,3.24a9.71,9.71,0,0,1-7.88,3.53A9.87,9.87,0,0,1,1308,275.39Z"/><path class="cls-12" d="M1189.24,609.72H1196l10.73,25.38h-7.49l-1.84-4.5h-9.72l-1.8,4.5h-7.34Zm6.12,15.44-2.81-7.16-2.84,7.16Z"/><path class="cls-12" d="M1208.75,615.63h6.84v2.59a7.15,7.15,0,0,1,5.9-3c4.64,0,8.64,3.85,8.64,10.15s-4,10.19-8.6,10.19a7.31,7.31,0,0,1-5.94-2.81v8.13h-6.84Zm14.65,9.68a4.11,4.11,0,0,0-4-4.39c-2.2,0-4,1.83-4,4.46a4.12,4.12,0,0,0,4,4.43C1221.64,629.81,1223.4,628,1223.4,625.31Z"/><path class="cls-12" d="M1233.09,615.63h6.84v2.59a7.15,7.15,0,0,1,5.9-3c4.64,0,8.64,3.85,8.64,10.15s-4,10.19-8.6,10.19a7.31,7.31,0,0,1-5.94-2.81v8.13h-6.84Zm14.65,9.68a4.11,4.11,0,0,0-4-4.39c-2.2,0-4,1.83-4,4.46a4.12,4.12,0,0,0,4,4.43C1246,629.81,1247.74,628,1247.74,625.31Z"/><path class="cls-12" d="M1257.57,608.82h6.84V635.1h-6.84Z"/><path class="cls-12" d="M1268.22,608.82h7.13v5h-7.13Zm.14,6.8h6.84V635.1h-6.84Z"/><path class="cls-12" d="M1278.23,625.38a10.12,10.12,0,0,1,10.44-10.15,9.21,9.21,0,0,1,8.32,4.36l-4.57,3.31a4.1,4.1,0,0,0-3.53-1.91c-2.48,0-4,1.94-4,4.39s1.58,4.43,3.89,4.43c1.62,0,2.59-.79,3.67-2.05l4.64,3.35a9.66,9.66,0,0,1-8.67,4.46A10.06,10.06,0,0,1,1278.23,625.38Z"/><path class="cls-12" d="M1298.54,629.45c0-4,3.06-6.12,7.63-6.12a14.94,14.94,0,0,1,4.68.76v-.32c0-2-1.26-3.17-3.89-3.17a13.7,13.7,0,0,0-5.36,1.08l-1.4-4.82a19.55,19.55,0,0,1,7.88-1.51c3.49,0,5.87.83,7.42,2.38s2.09,3.46,2.09,6.19V635.1h-6.77v-2a7.35,7.35,0,0,1-5.72,2.45C1301.38,635.53,1298.54,633.41,1298.54,629.45Zm12.38-1.4v-.9a7.16,7.16,0,0,0-2.66-.5c-2,0-3.13,1-3.13,2.48a2.15,2.15,0,0,0,2.41,2.12A3.13,3.13,0,0,0,1310.92,628Z"/><path class="cls-12" d="M1322.26,629.05v-7.92H1320v-5.51h2.3V610.7h6.84v4.93h4.54v5.51h-4.54v6.59c0,1.37.61,1.94,1.87,1.94a6,6,0,0,0,2.59-.65v5.36a9.76,9.76,0,0,1-4.75,1.12C1324.71,635.5,1322.26,633.7,1322.26,629.05Z"/><path class="cls-12" d="M1336.59,608.82h7.13v5h-7.13Zm.14,6.8h6.84V635.1h-6.84Z"/><path class="cls-12" d="M1346.6,625.38c0-5.54,4.54-10.19,10.8-10.19s10.73,4.57,10.73,10.19-4.54,10.19-10.8,10.19S1346.6,631,1346.6,625.38Zm14.87,0a4.22,4.22,0,0,0-4.14-4.39,4.1,4.1,0,0,0-4.07,4.39,4.22,4.22,0,0,0,4.14,4.39A4.1,4.1,0,0,0,1361.46,625.38Z"/><path class="cls-12" d="M1371,615.63h6.84v2.74a7.22,7.22,0,0,1,5.83-3.17c4.14,0,6.62,2.74,6.62,7.16V635.1h-6.84V624.55c0-2.12-1.12-3.28-2.74-3.28s-2.88,1.15-2.88,3.28V635.1H1371Z"/><path class="cls-11" d="M1079.77,278.74a3.81,3.81,0,0,0-3.84,1.21,1.54,1.54,0,0,0,.82,2.59l23.66,7.14-64.28,20.25c-1.5.47-2.44,1.66-2.12,2.69s1.78,1.48,3.28,1l64.28-20.25-15.31,19.38a1.56,1.56,0,0,0,.83,2.62,3.81,3.81,0,0,0,3.84-1.21l18.92-24a1.51,1.51,0,0,0-.81-2.59Zm0,0"/><rect class="cls-11" x="976.34" y="318.8" width="63.89" height="3.89" transform="translate(-49.78 317.76) rotate(-17.49)"/><path class="cls-11" d="M981.45,381a3.81,3.81,0,0,0,3.84-1.21,1.54,1.54,0,0,0-.82-2.59l-23.66-7.14,64.28-20.25c1.5-.47,2.44-1.66,2.12-2.69s-1.78-1.48-3.28-1l-64.28,20.25L975,347a1.56,1.56,0,0,0-.83-2.62,3.81,3.81,0,0,0-3.84,1.21l-18.92,24a1.51,1.51,0,0,0,.81,2.59Zm0,0"/><rect class="cls-11" x="1021" y="337.09" width="63.89" height="3.89" transform="translate(2159.11 346.04) rotate(162.51)"/><path class="cls-11" d="M1080.42,567.45a3.54,3.54,0,0,0-3.55-1.17,1.43,1.43,0,0,0-.79,2.4l14,18.19-59.43-19.5c-1.39-.46-2.74-.06-3.05.88s.54,2.08,1.93,2.54l59.43,19.5-22,6.34a1.45,1.45,0,0,0-.79,2.42,3.54,3.54,0,0,0,3.55,1.17l27.26-7.88a1.4,1.4,0,0,0,.78-2.39Zm0,0"/><rect class="cls-11" x="974.13" y="558.65" width="59.29" height="3.61" transform="translate(224.74 -285) rotate(18.16)"/><path class="cls-11" d="M950.93,591.41a3.54,3.54,0,0,0,3.55,1.17,1.43,1.43,0,0,0,.79-2.4l-14-18.19,59.43,19.5c1.39.46,2.74.06,3.05-.88s-.54-2.08-1.93-2.54l-59.43-19.5,22-6.34a1.45,1.45,0,0,0,.79-2.42,3.54,3.54,0,0,0-3.55-1.17l-27.26,7.88a1.4,1.4,0,0,0-.78,2.39Zm0,0"/><rect class="cls-11" x="997.92" y="596.61" width="59.29" height="3.61" transform="translate(1817.38 1487.34) rotate(-161.84)"/><path class="cls-11" d="M1310.81,512.67a4.54,4.54,0,0,0,0-4.8,1.84,1.84,0,0,0-3.24,0L1291,532.19V452c0-1.87-1-3.37-2.29-3.37s-2.32,1.49-2.32,3.37v80.23l-16.53-24.31a1.86,1.86,0,0,0-3.27,0,4.54,4.54,0,0,0,0,4.8l20.5,30.07a1.8,1.8,0,0,0,3.23,0Zm0,0"/><rect class="cls-11" x="1250.67" y="414.16" width="76.05" height="4.63" transform="translate(1705.17 -872.22) rotate(90)"/><path class="cls-11" d="M1229.84,364.45a4.54,4.54,0,0,0,0,4.8,1.84,1.84,0,0,0,3.24,0l16.57-24.31v80.23c0,1.87,1,3.37,2.29,3.37s2.32-1.49,2.32-3.37V344.93l16.53,24.31a1.86,1.86,0,0,0,3.27,0,4.54,4.54,0,0,0,0-4.8l-20.5-30.07a1.8,1.8,0,0,0-3.23,0Zm0,0"/><rect class="cls-11" x="1213.93" y="458.33" width="76.05" height="4.63" transform="translate(791.31 1712.6) rotate(-90)"/><path class="cls-12" d="M1656,787.5h24.91v5.28h-19v8.74h16.85v5.28h-16.85v9h19.25v5.28H1656Z"/><path class="cls-12" d="M1687.78,786.06h5.81v35h-5.81Z"/><path class="cls-12" d="M1716.67,821.1V818a10.25,10.25,0,0,1-8.21,3.65c-4.8,0-9-2.74-9-7.92,0-5.62,4.37-8.3,10.27-8.3a21.34,21.34,0,0,1,7,1.06V806c0-3.5-2.21-5.42-6.24-5.42a17.65,17.65,0,0,0-7.25,1.58l-1.58-4.66a21.74,21.74,0,0,1,9.65-2.11c7.49,0,11.14,3.94,11.14,10.71v15Zm.14-10.61a16.59,16.59,0,0,0-5.81-1c-3.65,0-5.81,1.49-5.81,4s2.16,3.74,4.9,3.74c3.84,0,6.72-2.16,6.72-5.33Z"/><path class="cls-12" d="M1727.28,817.79l2.59-3.94a14.22,14.22,0,0,0,8.3,3.12c2.5,0,3.94-1.06,3.94-2.83s-2.45-2.54-5.23-3.36l-.43-.14c-3.74-1.1-7.92-2.64-7.92-7.58s4-7.73,9-7.73a17.57,17.57,0,0,1,9.31,2.88l-2.3,4.13a14.71,14.71,0,0,0-7.15-2.4c-2.26,0-3.55,1.06-3.55,2.64s2.45,2.5,5.23,3.41l.48.14c3.7,1.15,7.87,2.83,7.87,7.49,0,5.33-4.13,8-9.41,8A17.81,17.81,0,0,1,1727.28,817.79Z"/><path class="cls-12" d="M1754.06,814.09V800.75h-3.22v-5h3.22v-7h5.81v7h6.82v5h-6.82v12.43c0,2.26,1.15,3.17,3.12,3.17a7.81,7.81,0,0,0,3.6-.86v4.75a10.17,10.17,0,0,1-5.23,1.3C1757.09,821.53,1754.06,819.66,1754.06,814.09Z"/><path class="cls-12" d="M1772.64,786.35h6.24v5.52h-6.24Zm.24,9.41h5.81V821.1h-5.81Z"/><path class="cls-12" d="M1784.88,808.48A13.07,13.07,0,0,1,1798,795.23a12.66,12.66,0,0,1,10.13,4.37l-3.6,3.89c-1.78-1.87-3.65-3.17-6.58-3.17-4.22,0-7.3,3.65-7.3,8.16s3.12,8.16,7.58,8.16c2.74,0,4.75-1.3,6.58-3.17l3.5,3.46a12.83,12.83,0,0,1-10.37,4.75A13,13,0,0,1,1784.88,808.48Z"/><path class="cls-10" d="M1646.27,806.8a11.34,11.34,0,0,0-7.5-10.69,16.32,16.32,0,0,0-16-19.39,16.25,16.25,0,0,0-13.2,6.75,8.65,8.65,0,0,0-13.93,6.84,9,9,0,0,0,.54,3,11.39,11.39,0,0,0,0,21.44,16.24,16.24,0,0,0,29.13,12.57,8.51,8.51,0,0,0,5.29,1.85,8.65,8.65,0,0,0,8.65-8.65,9,9,0,0,0-.54-3,11.47,11.47,0,0,0,7.58-10.72"/><path class="cls-13" d="M1611.29,801.44l12.62,5.75L1636.62,796a13.33,13.33,0,0,0,.27-2.8,14.21,14.21,0,0,0-25.94-8l-2.12,11Z"/><path class="cls-14" d="M1598.23,814.78a13.79,13.79,0,0,0-.27,2.85,14.27,14.27,0,0,0,26.06,8l2.09-10.94-2.8-5.36-12.67-5.77Z"/><path class="cls-15" d="M1598.16,793l8.65,2,1.9-9.82a6.83,6.83,0,0,0-10.55,7.77"/><path class="cls-16" d="M1597.4,795a9.53,9.53,0,0,0-.41,18l12.13-11-2.22-4.75Z"/><path class="cls-17" d="M1626.22,825.65a6.82,6.82,0,0,0,10.52-7.77l-8.62-2Z"/><path class="cls-18" d="M1628,813.59l9.5,2.22a9.53,9.53,0,0,0,.41-18l-12.42,10.89Z"/><path class="cls-12" d="M1634,489.81h12.53c10.56,0,17.86,7.25,17.86,16.8s-7.3,16.8-17.86,16.8H1634ZM1646.54,518c7.06,0,11.67-4.75,11.67-11.42s-4.61-11.43-11.67-11.43h-6.62V518Z"/><path class="cls-12" d="M1686.38,523.41v-3.12a10.24,10.24,0,0,1-8.21,3.65c-4.8,0-9-2.74-9-7.92,0-5.62,4.37-8.3,10.27-8.3a21.34,21.34,0,0,1,7,1.06v-.48c0-3.5-2.21-5.42-6.24-5.42a17.64,17.64,0,0,0-7.25,1.58l-1.58-4.66a21.74,21.74,0,0,1,9.65-2.11c7.49,0,11.14,3.94,11.14,10.7v15Zm.14-10.61a16.59,16.59,0,0,0-5.81-1c-3.65,0-5.81,1.49-5.81,4s2.16,3.74,4.9,3.74c3.84,0,6.72-2.16,6.72-5.33Z"/><path class="cls-12" d="M1700.25,516.4V503.06H1697v-5h3.22v-7h5.81v7h6.82v5h-6.82v12.43c0,2.26,1.15,3.17,3.12,3.17a7.81,7.81,0,0,0,3.6-.86v4.75a10.16,10.16,0,0,1-5.23,1.3C1703.28,523.84,1700.25,522,1700.25,516.4Z"/><path class="cls-12" d="M1734.24,523.41v-3.12a10.24,10.24,0,0,1-8.21,3.65c-4.8,0-9-2.74-9-7.92,0-5.62,4.37-8.3,10.27-8.3a21.34,21.34,0,0,1,7,1.06v-.48c0-3.5-2.21-5.42-6.24-5.42a17.64,17.64,0,0,0-7.25,1.58l-1.58-4.66a21.74,21.74,0,0,1,9.65-2.11c7.49,0,11.14,3.94,11.14,10.7v15Zm.14-10.61a16.59,16.59,0,0,0-5.81-1c-3.65,0-5.81,1.49-5.81,4s2.16,3.74,4.9,3.74c3.84,0,6.72-2.16,6.72-5.33Z"/><path class="cls-12" d="M1747.58,489.81h15.07c3.84,0,6.87,1.06,8.79,3a7.59,7.59,0,0,1,2.26,5.66c0,4-2.3,6.19-4.8,7.49,3.94,1.34,6.67,3.6,6.67,8.26,0,6-4.94,9.22-12.43,9.22h-15.55ZM1761.45,504c3.79,0,6.34-1.49,6.34-4.66,0-2.64-2.11-4.27-5.9-4.27h-8.5V504Zm1.73,14.21c4,0,6.48-1.58,6.48-4.7,0-2.83-2.26-4.51-6.91-4.51h-9.36v9.22Z"/><path class="cls-12" d="M1797.07,523.41v-3.12a10.25,10.25,0,0,1-8.21,3.65c-4.8,0-9-2.74-9-7.92,0-5.62,4.37-8.3,10.27-8.3a21.33,21.33,0,0,1,7,1.06v-.48c0-3.5-2.21-5.42-6.24-5.42a17.64,17.64,0,0,0-7.25,1.58l-1.58-4.66a21.73,21.73,0,0,1,9.65-2.11c7.49,0,11.14,3.94,11.14,10.7v15Zm.14-10.61a16.59,16.59,0,0,0-5.81-1c-3.65,0-5.81,1.49-5.81,4s2.16,3.74,4.9,3.74c3.84,0,6.72-2.16,6.72-5.33Z"/><path class="cls-12" d="M1807.68,520.1l2.59-3.94a14.23,14.23,0,0,0,8.3,3.12c2.5,0,3.94-1.06,3.94-2.83s-2.45-2.54-5.23-3.36l-.43-.14c-3.74-1.1-7.92-2.64-7.92-7.58s4-7.73,9-7.73a17.57,17.57,0,0,1,9.31,2.88l-2.3,4.13a14.71,14.71,0,0,0-7.15-2.4c-2.26,0-3.55,1.06-3.55,2.64s2.45,2.5,5.23,3.41l.48.14c3.7,1.15,7.87,2.83,7.87,7.49,0,5.33-4.13,8-9.41,8A17.8,17.8,0,0,1,1807.68,520.1Z"/><path class="cls-12" d="M1832.35,510.74c0-7.25,5.14-13.2,12.38-13.2,8.06,0,12.14,6.34,12.14,13.63,0,.38,0,1.34-.1,1.63h-18.62a7.08,7.08,0,0,0,7.3,6.43,9.2,9.2,0,0,0,6.86-3l3.41,3a12.82,12.82,0,0,1-10.37,4.75C1838,524,1832.35,518.66,1832.35,510.74Zm18.77-1.78c-.38-3.74-2.59-6.67-6.43-6.67-3.55,0-6,2.74-6.58,6.67Z"/><path class="cls-12" d="M1861.77,505.84H1876v5.71h-14.21Z"/><path class="cls-12" d="M1881,518.76l11.57-9.84c4.61-3.89,6.29-6,6.29-9.07,0-3.31-2.35-5.23-5.43-5.23s-5.18,1.68-7.78,5l-4.18-3.26c3.22-4.51,6.38-7.06,12.39-7.06,6.58,0,11.09,4,11.09,10.13,0,5.28-2.83,8.11-8.74,13l-6.91,5.76h16v5.18H1881Z"/><path class="cls-19" d="M1596.13,478.72c-11.23,0-20.65,2.73-23.27,6.42-6.1,1.44-10.23,3.83-10.68,6.58h0v37h0c.73,4.46,11.17,8,24,8,11.23,0,20.65-2.73,23.27-6.42,6.1-1.44,10.24-3.83,10.69-6.58h0v-36.5C1620.13,482.52,1609.39,478.72,1596.13,478.72Z"/><path class="cls-19" d="M1586.13,524.72c-13.25,0-24-3.81-24-8.5v12.5h0c.73,4.46,11.17,8,24,8s23.22-3.54,24-8h0v-12.5C1610.13,520.91,1599.39,524.72,1586.13,524.72Z"/><path class="cls-19" d="M1562.13,515.72v.5a3.11,3.11,0,0,1,0-.5Z"/><path class="cls-19" d="M1610.09,515.72a3.11,3.11,0,0,1,0,.5v-.5Z"/><path class="cls-20" d="M1586.13,512.72c-13.25,0-24-3.81-24-8.5v12.5h0c.73,4.46,11.17,8,24,8s23.22-3.54,24-8h0v-12.5C1610.13,508.91,1599.39,512.72,1586.13,512.72Z"/><path class="cls-20" d="M1562.13,503.72v.5a3.11,3.11,0,0,1,0-.5Z"/><path class="cls-20" d="M1610.09,503.72a3.11,3.11,0,0,1,0,.5v-.5Z"/><ellipse class="cls-21" cx="1586.13" cy="492.22" rx="24" ry="8.5"/><path class="cls-22" d="M1586.13,500.72c-13.25,0-24-3.81-24-8.5v12.5h0c.73,4.46,11.17,8,24,8s23.22-3.54,24-8h0v-12.5C1610.13,496.91,1599.39,500.72,1586.13,500.72Z"/><path class="cls-22" d="M1562.13,491.72v.5a3.11,3.11,0,0,1,0-.5Z"/><path class="cls-22" d="M1610.09,491.72a3.11,3.11,0,0,1,0,.5v-.5Z"/><path class="cls-23" d="M1596.13,478.72c-11.23,0-20.65,2.73-23.27,6.42a58.88,58.88,0,0,1,13.27-1.42c12.78,0,23.22,3.54,24,8h0v2.4c6.05-1.54,10-4.06,10-6.9C1620.13,482.52,1609.39,478.72,1596.13,478.72Z"/><path class="cls-24" d="M1610.13,494.12v12c5.7-1.45,9.52-3.77,10-6.4h0v-12.5C1620.13,490.06,1616.19,492.58,1610.13,494.12Z"/><path class="cls-25" d="M1610.13,506.12v12c5.7-1.45,9.52-3.77,10-6.4h0v-12.5C1620.13,502.06,1616.19,504.58,1610.13,506.12Z"/><path class="cls-26" d="M1610.13,518.12v10.6h0a3.8,3.8,0,0,1-.69,1.58c6.1-1.44,10.24-3.83,10.69-6.58h0v-12.5C1620.13,514.06,1616.19,516.58,1610.13,518.12Z"/><path class="cls-12" d="M1187.44,907.93v-3.12a10.24,10.24,0,0,1-8.21,3.65c-4.8,0-9-2.74-9-7.92,0-5.62,4.37-8.3,10.27-8.3a21.33,21.33,0,0,1,7,1.06v-.48c0-3.5-2.21-5.42-6.24-5.42A17.64,17.64,0,0,0,1174,889l-1.58-4.66a21.74,21.74,0,0,1,9.65-2.11c7.49,0,11.14,3.94,11.14,10.7v15Zm.14-10.61a16.59,16.59,0,0,0-5.81-1c-3.65,0-5.81,1.49-5.81,4s2.16,3.74,4.9,3.74c3.84,0,6.72-2.16,6.72-5.33Z"/><path class="cls-12" d="M1200.11,882.58h5.81v3.94a9.12,9.12,0,0,1,7.92-4.46c5.71,0,9,3.84,9,9.75v16.13h-5.81v-14.4c0-3.94-2-6.19-5.42-6.19s-5.71,2.35-5.71,6.29v14.3h-5.81Z"/><path class="cls-12" d="M1228.57,895.21c0-8.4,5.71-13.15,11.76-13.15a10.49,10.49,0,0,1,8.64,4.46V872.89h5.81v35H1249v-4.22a10.15,10.15,0,0,1-8.64,4.75C1234.38,908.46,1228.57,903.71,1228.57,895.21Zm20.5,0c0-4.9-3.46-8.11-7.34-8.11s-7.3,3.07-7.3,8.21c0,4.9,3.36,8.11,7.3,8.11S1249.07,900.15,1249.07,895.21Z"/><path class="cls-12" d="M1275,895.31a13.52,13.52,0,1,1,13.44,13.2A13.25,13.25,0,0,1,1275,895.31Zm21.22,0a7.83,7.83,0,0,0-7.78-8.16c-4.66,0-7.63,3.65-7.63,8.16a7.85,7.85,0,0,0,7.73,8.16C1293.28,903.47,1296.25,899.77,1296.25,895.31Z"/><path class="cls-12" d="M1309.16,900.92V887.58h-3.22v-5h3.22v-7H1315v7h6.82v5H1315V900c0,2.26,1.15,3.17,3.12,3.17a7.81,7.81,0,0,0,3.6-.86v4.75a10.17,10.17,0,0,1-5.23,1.3C1312.19,908.36,1309.16,906.49,1309.16,900.92Z"/><path class="cls-12" d="M1327.64,872.89h5.81v13.63a9.12,9.12,0,0,1,7.92-4.46c5.71,0,9,3.84,9,9.75v16.13h-5.81v-14.4c0-3.94-2-6.19-5.42-6.19s-5.71,2.35-5.71,6.29v14.3h-5.81Z"/><path class="cls-12" d="M1356,895.26c0-7.25,5.14-13.2,12.38-13.2,8.07,0,12.15,6.34,12.15,13.63,0,.38,0,1.34-.1,1.63h-18.63a7.08,7.08,0,0,0,7.3,6.43,9.2,9.2,0,0,0,6.86-3l3.41,3a12.82,12.82,0,0,1-10.37,4.75C1361.67,908.51,1356,903.18,1356,895.26Zm18.77-1.78c-.38-3.74-2.59-6.67-6.43-6.67-3.55,0-6,2.74-6.58,6.67Z"/><path class="cls-12" d="M1386.39,882.58h5.81v5.71c1.58-3.79,4.51-6.38,9-6.19v6.14h-.34c-5.09,0-8.64,3.31-8.64,10v9.65h-5.81Z"/><rect class="cls-27" x="1098.12" y="863.23" width="58" height="58"/><rect class="cls-28" x="1098.12" y="863.23" width="58" height="12"/><circle class="cls-29" cx="1104.12" cy="869.23" r="3"/><circle class="cls-30" cx="1113.12" cy="869.23" r="3"/><circle class="cls-31" cx="1122.12" cy="869.23" r="3"/><rect class="cls-32" x="1098.12" y="875.23" width="7" height="46"/><path class="cls-33" d="M1101.12,881.23h1a1,1,0,0,0,0-2h-1a1,1,0,0,0,0,2Z"/><path class="cls-33" d="M1102.12,883.23h-1a1,1,0,0,0,0,2h1a1,1,0,0,0,0-2Z"/><path class="cls-33" d="M1102.12,887.23h-1a1,1,0,0,0,0,2h1a1,1,0,0,0,0-2Z"/><path class="cls-33" d="M1102.12,891.23h-1a1,1,0,0,0,0,2h1a1,1,0,0,0,0-2Z"/><path class="cls-33" d="M1102.12,895.23h-1a1,1,0,0,0,0,2h1a1,1,0,0,0,0-2Z"/><path class="cls-33" d="M1102.12,899.23h-1a1,1,0,0,0,0,2h1a1,1,0,0,0,0-2Z"/><path class="cls-33" d="M1102.12,903.23h-1a1,1,0,0,0,0,2h1a1,1,0,0,0,0-2Z"/><path class="cls-33" d="M1102.12,907.23h-1a1,1,0,0,0,0,2h1a1,1,0,0,0,0-2Z"/><path class="cls-33" d="M1102.12,911.23h-1a1,1,0,0,0,0,2h1a1,1,0,0,0,0-2Z"/><path class="cls-33" d="M1102.12,915.23h-1a1,1,0,0,0,0,2h1a1,1,0,0,0,0-2Z"/><path class="cls-34" d="M1123.12,881.23h-13a1,1,0,0,1,0-2h13a1,1,0,0,1,0,2Z"/><path class="cls-30" d="M1137.12,881.23h-10a1,1,0,0,1,0-2h10a1,1,0,0,1,0,2Z"/><path class="cls-31" d="M1143.12,881.23h-2a1,1,0,0,1,0-2h2a1,1,0,0,1,0,2Z"/><path class="cls-34" d="M1148.12,885.23h-15a1,1,0,0,1,0-2h15a1,1,0,0,1,0,2Z"/><path class="cls-35" d="M1129.12,885.23h-14a1,1,0,0,1,0-2h14a1,1,0,0,1,0,2Z"/><path class="cls-35" d="M1111.12,885.23h-1a1,1,0,0,1,0-2h1a1,1,0,0,1,0,2Z"/><path class="cls-34" d="M1119.12,889.23h-9a1,1,0,0,1,0-2h9a1,1,0,0,1,0,2Z"/><path class="cls-30" d="M1125.12,889.23h-2a1,1,0,0,1,0-2h2a1,1,0,0,1,0,2Z"/><path class="cls-31" d="M1143.12,889.23h-14a1,1,0,0,1,0-2h14a1,1,0,0,1,0,2Z"/><path class="cls-30" d="M1123.12,893.23h-13a1,1,0,0,1,0-2h13a1,1,0,0,1,0,2Z"/><path class="cls-31" d="M1137.12,893.23h-10a1,1,0,0,1,0-2h10a1,1,0,0,1,0,2Z"/><path class="cls-30" d="M1141.12,897.23h-8a1,1,0,0,1,0-2h8a1,1,0,0,1,0,2Z"/><path class="cls-34" d="M1129.12,897.23h-14a1,1,0,0,1,0-2h14a1,1,0,0,1,0,2Z"/><path class="cls-31" d="M1111.12,897.23h-1a1,1,0,0,1,0-2h1a1,1,0,0,1,0,2Z"/><path class="cls-30" d="M1119.12,901.23h-9a1,1,0,0,1,0-2h9a1,1,0,0,1,0,2Z"/><path class="cls-34" d="M1125.12,901.23h-2a1,1,0,0,1,0-2h2a1,1,0,0,1,0,2Z"/><path class="cls-35" d="M1144.12,901.23h-15a1,1,0,0,1,0-2h15a1,1,0,0,1,0,2Z"/><path class="cls-34" d="M1123.12,905.23h-13a1,1,0,0,1,0-2h13a1,1,0,0,1,0,2Z"/><path class="cls-31" d="M1137.12,905.23h-10a1,1,0,0,1,0-2h10a1,1,0,0,1,0,2Z"/><path class="cls-35" d="M1148.12,905.23h-7a1,1,0,0,1,0-2h7a1,1,0,1,1,0,2Z"/><path class="cls-34" d="M1137.12,909.23h-4a1,1,0,0,1,0-2h4a1,1,0,0,1,0,2Z"/><path class="cls-35" d="M1129.12,909.23h-14a1,1,0,0,1,0-2h14a1,1,0,0,1,0,2Z"/><path class="cls-30" d="M1111.12,909.23h-1a1,1,0,0,1,0-2h1a1,1,0,0,1,0,2Z"/><path class="cls-31" d="M1119.12,913.23h-9a1,1,0,0,1,0-2h9a1,1,0,0,1,0,2Z"/><path class="cls-34" d="M1125.12,913.23h-2a1,1,0,0,1,0-2h2a1,1,0,0,1,0,2Z"/><path class="cls-35" d="M1136.12,913.23h-7a1,1,0,0,1,0-2h7a1,1,0,1,1,0,2Z"/><path class="cls-30" d="M1141.12,913.23h-1a1,1,0,0,1,0-2h1a1,1,0,1,1,0,2Z"/><path class="cls-11" d="M1534.47,548.32a2.61,2.61,0,0,0-2.57,1,1.06,1.06,0,0,0,.68,1.74l16.53,3.78-43,16.86c-1,.39-1.59,1.25-1.32,1.94s1.29.93,2.29.54l43-16.86-9.57,14a1.07,1.07,0,0,0,.69,1.75,2.61,2.61,0,0,0,2.57-1l11.82-17.32a1,1,0,0,0-.68-1.73Zm0,0"/><rect class="cls-11" x="1465.6" y="579.07" width="43.83" height="2.67" transform="translate(-109.22 582.62) rotate(-21.39)"/><path class="cls-11" d="M1472,622.93a2.61,2.61,0,0,0,2.57-1,1.06,1.06,0,0,0-.68-1.74l-16.53-3.78,43-16.86c1-.39,1.59-1.25,1.32-1.94s-1.29-.93-2.29-.54l-43,16.86,9.57-14a1.07,1.07,0,0,0-.69-1.75,2.61,2.61,0,0,0-2.57,1l-11.82,17.32a1,1,0,0,0,.68,1.73Zm0,0"/><rect class="cls-11" x="1497.02" y="589.51" width="43.83" height="2.67" transform="translate(3148.73 586.88) rotate(158.61)"/><path class="cls-11" d="M1254,814.91a2.61,2.61,0,0,0,0-2.76,1.06,1.06,0,0,0-1.87,0l-9.55,14V779.93c0-1.08-.59-1.94-1.32-1.94s-1.34.86-1.34,1.94v46.23l-9.53-14a1.07,1.07,0,0,0-1.88,0,2.61,2.61,0,0,0,0,2.76l11.81,17.33a1,1,0,0,0,1.86,0Zm0,0"/><rect class="cls-11" x="1219.35" y="758.15" width="43.83" height="2.67" transform="translate(2000.74 -481.78) rotate(90)"/><path class="cls-11" d="M1207.34,729.5a2.61,2.61,0,0,0,0,2.76,1.06,1.06,0,0,0,1.87,0l9.55-14v46.23c0,1.08.59,1.94,1.32,1.94s1.34-.86,1.34-1.94V718.25l9.53,14a1.07,1.07,0,0,0,1.88,0,2.61,2.61,0,0,0,0-2.76L1221,712.17a1,1,0,0,0-1.86,0Zm0,0"/><rect class="cls-11" x="1198.17" y="783.6" width="43.83" height="2.67" transform="translate(435.15 2005.02) rotate(-90)"/><path class="cls-11" d="M1529.72,752.89a2.61,2.61,0,0,0-2.26-1.59,1.06,1.06,0,0,0-1.08,1.53l6,15.88-37.79-26.63c-.88-.62-1.92-.64-2.35,0s-.07,1.59.81,2.21l37.79,26.63-16.94-.28a1.07,1.07,0,0,0-1.09,1.54,2.61,2.61,0,0,0,2.26,1.59l21,.33a1,1,0,0,0,1.07-1.52Zm0,0"/><rect class="cls-11" x="1455.15" y="730.04" width="43.83" height="2.67" transform="translate(691.03 -717.34) rotate(35.17)"/><path class="cls-11" d="M1433,741.83a2.61,2.61,0,0,0,2.26,1.59,1.06,1.06,0,0,0,1.08-1.53l-6-15.88,37.79,26.63c.88.62,1.92.64,2.35,0s.07-1.59-.81-2.21l-37.79-26.63,16.94.28a1.07,1.07,0,0,0,1.09-1.54,2.61,2.61,0,0,0-2.26-1.59l-21-.33a1,1,0,0,0-1.07,1.52Zm0,0"/><rect class="cls-11" x="1463.76" y="762.01" width="43.83" height="2.67" transform="translate(2260.33 2243.15) rotate(-144.83)"/><polyline class="cls-36" points="1433.37 654.37 1433.37 660.37 1427.37 660.37"/><line class="cls-37" x1="1415.69" y1="660.37" x2="1141.09" y2="660.37"/><polyline class="cls-36" points="1135.25 660.37 1129.25 660.37 1129.25 654.37"/><line class="cls-38" x1="1129.25" y1="641.95" x2="1129.25" y2="598.5"/><polyline class="cls-36" points="1129.25 592.29 1129.25 586.29 1135.25 586.29"/><line class="cls-37" x1="1146.93" y1="586.29" x2="1421.53" y2="586.29"/><polyline class="cls-36" points="1427.37 586.29 1433.37 586.29 1433.37 592.29"/><line class="cls-38" x1="1433.37" y1="604.71" x2="1433.37" y2="648.16"/><polyline class="cls-36" points="1384.05 304.35 1384.05 310.35 1378.05 310.35"/><line class="cls-39" x1="1365.85" y1="310.35" x2="1176.85" y2="310.35"/><polyline class="cls-36" points="1170.76 310.35 1164.76 310.35 1164.76 304.35"/><line class="cls-38" x1="1164.76" y1="291.93" x2="1164.76" y2="248.48"/><polyline class="cls-36" points="1164.76 242.27 1164.76 236.27 1170.76 236.27"/><line class="cls-39" x1="1182.95" y1="236.27" x2="1371.95" y2="236.27"/><polyline class="cls-36" points="1378.05 236.27 1384.05 236.27 1384.05 242.27"/><line class="cls-38" x1="1384.04" y1="254.69" x2="1384.04" y2="298.14"/><path class="cls-11" d="M1447.22,408a3.4,3.4,0,0,0-2.34,2.72,1.37,1.37,0,0,0,1.84,1.58l21.27-5.73-39.13,45.56c-.91,1.06-1.06,2.41-.34,3s2,.29,3-.78l39.13-45.56-2.47,21.87a1.39,1.39,0,0,0,1.86,1.59,3.4,3.4,0,0,0,2.34-2.72l3-27.07a1.35,1.35,0,0,0-1.83-1.57Zm0,0"/><rect class="cls-11" x="1384.4" y="471.72" width="56.93" height="3.46" transform="translate(133.21 1236.89) rotate(-49.35)"/><path class="cls-11" d="M1420.92,531.71a3.4,3.4,0,0,0,2.34-2.72,1.37,1.37,0,0,0-1.84-1.58l-21.27,5.73,39.13-45.56c.91-1.06,1.06-2.41.34-3s-2-.29-3,.78l-39.13,45.56L1400,509a1.39,1.39,0,0,0-1.86-1.59,3.4,3.4,0,0,0-2.34,2.72l-3,27.07a1.35,1.35,0,0,0,1.83,1.57Zm0,0"/><rect class="cls-11" x="1426.81" y="464.55" width="56.93" height="3.46" transform="translate(2757.12 -333.99) rotate(130.65)"/><path class="cls-10" d="M1538.47,284.43a25.25,25.25,0,0,0-7.79-.13,14.13,14.13,0,0,0-4.16,1.61c-4.16-1.34-8.86-2.15-13.16-1.34a11.06,11.06,0,0,0-7.65,5.24c-2,3.36-2.42,7.38-2.15,11.28a83.23,83.23,0,0,0,2.82,12.75,42,42,0,0,0,4.3,10.47c1.07,1.75,2.69,3.63,4.83,4.16a5.69,5.69,0,0,0,4.83-1.21,5.62,5.62,0,0,0,2.42,1.48,10.77,10.77,0,0,0,7.92-.13c.13,3.49,0,7.12,1.34,10.34a7.19,7.19,0,0,0,2.82,4,7.5,7.5,0,0,0,5.37.94,13.93,13.93,0,0,0,4.7-1.61,8.6,8.6,0,0,0,3.36-3.89c1.61-3.63,1.75-7.52,1.88-11.41a14,14,0,0,0,10.47-3.22c1.07-.94,2-2.42,1.61-3.89a3.18,3.18,0,0,0-3.22-2.15c-1.48.13-2.82.54-4.3.54a55.4,55.4,0,0,0,6.85-18c.4-2.69.81-5.37,0-8.06a9,9,0,0,0-2.55-3.76,18.1,18.1,0,0,0-9.13-4.7A23.38,23.38,0,0,0,1538.47,284.43Z"/><path class="cls-12" d="M1576,295.42h12.53c10.56,0,17.86,7.25,17.86,16.8s-7.3,16.8-17.86,16.8H1576Zm12.53,28.23c7.06,0,11.67-4.75,11.67-11.42s-4.61-11.43-11.67-11.43h-6.62v22.85Z"/><path class="cls-12" d="M1628.35,329v-3.12a10.25,10.25,0,0,1-8.21,3.65c-4.8,0-9-2.74-9-7.92,0-5.62,4.37-8.3,10.27-8.3a21.33,21.33,0,0,1,7,1.06v-.48c0-3.5-2.21-5.42-6.24-5.42a17.64,17.64,0,0,0-7.25,1.58l-1.58-4.66a21.73,21.73,0,0,1,9.65-2.11c7.49,0,11.14,3.94,11.14,10.7v15Zm.14-10.61a16.59,16.59,0,0,0-5.81-1c-3.65,0-5.81,1.49-5.81,4s2.16,3.74,4.9,3.74c3.84,0,6.72-2.16,6.72-5.33Z"/><path class="cls-12" d="M1642.22,322V308.67H1639v-5h3.22v-7H1648v7h6.82v5H1648v12.43c0,2.26,1.15,3.17,3.12,3.17a7.8,7.8,0,0,0,3.6-.86v4.75a10.17,10.17,0,0,1-5.23,1.3C1645.25,329.46,1642.22,327.59,1642.22,322Z"/><path class="cls-12" d="M1676.21,329v-3.12a10.25,10.25,0,0,1-8.21,3.65c-4.8,0-9-2.74-9-7.92,0-5.62,4.37-8.3,10.27-8.3a21.33,21.33,0,0,1,7,1.06v-.48c0-3.5-2.21-5.42-6.24-5.42a17.64,17.64,0,0,0-7.25,1.58l-1.58-4.66a21.73,21.73,0,0,1,9.65-2.11c7.49,0,11.14,3.94,11.14,10.7v15Zm.14-10.61a16.59,16.59,0,0,0-5.81-1c-3.65,0-5.81,1.49-5.81,4s2.16,3.74,4.9,3.74c3.84,0,6.72-2.16,6.72-5.33Z"/><path class="cls-12" d="M1689.55,295.42h15.07c3.84,0,6.86,1.06,8.78,3a7.59,7.59,0,0,1,2.26,5.66c0,4-2.3,6.19-4.8,7.49,3.94,1.34,6.67,3.6,6.67,8.26,0,6-4.94,9.22-12.43,9.22h-15.55Zm13.87,14.16c3.79,0,6.34-1.49,6.34-4.66,0-2.64-2.11-4.27-5.91-4.27h-8.5v8.93Zm1.73,14.21c4,0,6.48-1.58,6.48-4.7,0-2.83-2.26-4.51-6.91-4.51h-9.36v9.22Z"/><path class="cls-12" d="M1739,329v-3.12a10.24,10.24,0,0,1-8.21,3.65c-4.8,0-9-2.74-9-7.92,0-5.62,4.37-8.3,10.27-8.3a21.35,21.35,0,0,1,7,1.06v-.48c0-3.5-2.21-5.42-6.24-5.42a17.64,17.64,0,0,0-7.25,1.58l-1.58-4.66a21.74,21.74,0,0,1,9.65-2.11c7.49,0,11.14,3.94,11.14,10.7v15Zm.14-10.61a16.59,16.59,0,0,0-5.81-1c-3.65,0-5.81,1.49-5.81,4s2.16,3.74,4.9,3.74c3.84,0,6.72-2.16,6.72-5.33Z"/><path class="cls-12" d="M1749.64,325.71l2.59-3.94a14.23,14.23,0,0,0,8.3,3.12c2.5,0,3.94-1.06,3.94-2.83s-2.45-2.54-5.23-3.36l-.43-.14c-3.74-1.1-7.92-2.64-7.92-7.58s4-7.73,9-7.73a17.57,17.57,0,0,1,9.31,2.88l-2.3,4.13a14.71,14.71,0,0,0-7.15-2.4c-2.26,0-3.55,1.06-3.55,2.64s2.45,2.5,5.23,3.41l.48.14c3.7,1.15,7.87,2.83,7.87,7.49,0,5.33-4.13,8-9.41,8A17.81,17.81,0,0,1,1749.64,325.71Z"/><path class="cls-12" d="M1774.32,316.35c0-7.25,5.14-13.2,12.38-13.2,8.07,0,12.15,6.34,12.15,13.63,0,.38,0,1.34-.1,1.63h-18.63a7.08,7.08,0,0,0,7.3,6.43,9.21,9.21,0,0,0,6.87-3l3.41,3a12.82,12.82,0,0,1-10.37,4.75C1780,329.6,1774.32,324.27,1774.32,316.35Zm18.77-1.78c-.38-3.74-2.59-6.67-6.43-6.67-3.55,0-6,2.74-6.58,6.67Z"/><path class="cls-12" d="M1803.74,311.46h14.21v5.71h-14.21Z"/><path class="cls-12" d="M1827.74,301.18l-6,1.68-1.25-4.8,9-2.88h4.13V329h-5.86Z"/><path class="cls-10" d="M1538.33,285.65a21.53,21.53,0,0,1,12.35-.4,15.69,15.69,0,0,1,8.19,5.5,6.57,6.57,0,0,1,1.07,3.89,25.27,25.27,0,0,1-.94,7.12,58.49,58.49,0,0,1-7.52,17.32c1.88.81,4,.4,5.91.13.81-.13,1.88-.4,2.42.4a1.86,1.86,0,0,1-.54,2.28c-2.82,2.82-7.12,3.49-10.88,2.82-.4,3.36-.81,6.71-1.34,10.2a8,8,0,0,1-2.42,5.1,9.56,9.56,0,0,1-5,2c-1.75.27-3.89.13-5.24-1.21a8.11,8.11,0,0,1-2.55-5.24,86.44,86.44,0,0,1-.4-10.2,8.56,8.56,0,0,1-5.91,2c-1.48-.13-3.22-.4-4.3-1.48a1.4,1.4,0,0,1,.13-2.15c1.21-.94,2.82-.81,4.16-1.34,1.07-.27,1.61-1.34,2.15-2a8.88,8.88,0,0,1-3.36-.94c-1.61,1.75-3.22,3.63-4.7,5.37-.94,1.07-2.15,2-3.63,1.75a6.38,6.38,0,0,1-3.76-2.69,32.28,32.28,0,0,1-3.89-8.46,92.33,92.33,0,0,1-3.36-14.63c-.4-3.76,0-7.79,2.15-10.88a10.28,10.28,0,0,1,7.65-4.16,27.26,27.26,0,0,1,11.81,1.75,14.25,14.25,0,0,1,10.74-1.61C1537.79,285.65,1538.06,285.78,1538.33,285.65Zm3,1.07c.81.54,1.61.94,2.42,1.48a19.91,19.91,0,0,1,7.25,8.73,6.75,6.75,0,0,1,.81,3.22c0,2.28-.81,4.56-.54,6.85s.81,5,.13,7.38a17.93,17.93,0,0,1-.94,2.42,1.35,1.35,0,0,0,.13.4l.81-1.21a54.09,54.09,0,0,0,5.77-13.43,31.42,31.42,0,0,0,1.21-7.92,5.51,5.51,0,0,0-.81-3.22,14.21,14.21,0,0,0-5.77-4.3A19.79,19.79,0,0,0,1541.28,286.72Zm-9.4.27a9.44,9.44,0,0,0-6.44,3.76,19.3,19.3,0,0,0-3.22,9.67c2.15-.94,4.43-1.88,6.85-1.34a4.24,4.24,0,0,1,3,3.22,21.62,21.62,0,0,1,.4,9.26c-.54,2.42-2,4.56-2.55,7.12a4.29,4.29,0,0,1,1.88.4,3.46,3.46,0,0,1,1.75,3.36,84,84,0,0,0,.13,10.07,22.09,22.09,0,0,0,.54,4.16,5.08,5.08,0,0,0,3.36,3.63,9.91,9.91,0,0,0,5.5-1.07c1.61-.81,2.42-2.69,2.69-4.43.54-3.63.94-7.25,1.34-10.88.13-1.34-.13-2.69.67-3.89.4-.81,1.21-1.07,1.88-1.48-.54-.81-1.21-1.61-1.75-2.42-1.75-3.76-4.16-7.25-5-11.28-.27-1.75-.13-3.76,1.34-5s3.76-1.21,5.77-1.21a19.27,19.27,0,0,0-6-8.46A17.11,17.11,0,0,0,1531.89,287Zm-17.86.27a8.28,8.28,0,0,0-5.77,3.89c-1.61,2.82-1.75,6-1.48,9.13a78.05,78.05,0,0,0,2.69,12.08,40.85,40.85,0,0,0,4,9.67,5.5,5.5,0,0,0,2.69,2.55c1.07.27,1.88-.67,2.55-1.34,1.34-1.75,3-3.36,4.43-5.1a9.25,9.25,0,0,1-3-7.79,37,37,0,0,0,.27-6.71,25.19,25.19,0,0,1,1.21-9.4,15.2,15.2,0,0,1,3.49-6C1521.55,287.39,1517.65,286.59,1514,287.26Zm31.28,13.83c-1.07.81-1.07,2.42-.81,3.63.81,3.89,3.09,7.12,4.7,10.61,1.34-2.55.54-5.5.27-8.32-.27-2.28.4-4.43.54-6.58C1548.53,300.41,1546.79,300.15,1545.31,301.09Zm-23.23,1.48c0,1.88.13,3.76,0,5.5s-.54,3.22-.13,4.83a6.45,6.45,0,0,0,6.18,5.37,23.56,23.56,0,0,1,1.61-4.3c1.88-3.63,1.48-7.79.54-11.55a2.42,2.42,0,0,0-2.28-1.88A11.54,11.54,0,0,0,1522.09,302.56Zm27.26,18.13a2.72,2.72,0,0,0-.54,2,9.42,9.42,0,0,0,3.89.27,9.18,9.18,0,0,0,5.37-2.28c-2.28.27-4.83.81-7.12-.27A1.71,1.71,0,0,0,1549.34,320.69Zm-22.15,2.69c-1.34.81-3,.67-4.16,1.34,2.69,1.34,6.58.94,8.46-1.61a1.65,1.65,0,0,0-1.21-2.69C1528.93,321.23,1528.4,322.7,1527.19,323.37Z"/><path class="cls-10" d="M1545.85,302a3.18,3.18,0,0,1,2.69-.27,1.6,1.6,0,0,1-2.28,1.34C1546,303,1545.45,302.42,1545.85,302Z"/><path class="cls-10" d="M1526.92,302.15a2.6,2.6,0,0,1,2.42.4c.4.4,0,1.07-.4,1.21a1.69,1.69,0,0,1-2.55-1.07A.58.58,0,0,1,1526.92,302.15Z"/><path class="cls-40" d="M1541.28,287.12a18.08,18.08,0,0,1,10.34.54,13.11,13.11,0,0,1,5.77,4.3,4.67,4.67,0,0,1,.81,3.22,32.37,32.37,0,0,1-1.21,7.92,54.09,54.09,0,0,1-5.77,13.43l-.81,1.21a1.35,1.35,0,0,0-.13-.4,17.93,17.93,0,0,0,.94-2.42c.67-2.42.13-5-.13-7.38s.54-4.56.54-6.85a7.15,7.15,0,0,0-.81-3.22,20.85,20.85,0,0,0-7.25-8.73A9.87,9.87,0,0,0,1541.28,287.12Z"/><path class="cls-40" d="M1531.89,287.38a16.6,16.6,0,0,1,11.95,3.22,18.27,18.27,0,0,1,6,8.46c-1.88,0-4.16-.13-5.77,1.21s-1.61,3.22-1.34,5c.81,4.16,3.22,7.65,5,11.28a10.05,10.05,0,0,0,1.75,2.42,3.47,3.47,0,0,0-1.88,1.48c-.67,1.21-.4,2.55-.67,3.89-.4,3.63-.81,7.25-1.34,10.88-.27,1.75-1.07,3.63-2.69,4.43a9.69,9.69,0,0,1-5.5,1.07c-1.75-.27-3-2-3.36-3.63a22.09,22.09,0,0,1-.54-4.16c-.13-3.36-.13-6.71-.13-10.07a3.46,3.46,0,0,0-1.75-3.36,4.29,4.29,0,0,0-1.88-.4c.54-2.42,2-4.56,2.55-7.12a21.62,21.62,0,0,0-.4-9.26,4.24,4.24,0,0,0-3-3.22c-2.42-.54-4.7.27-6.85,1.34a19.3,19.3,0,0,1,3.22-9.67A10.61,10.61,0,0,1,1531.89,287.38Z"/><path class="cls-40" d="M1514,287.65a24.2,24.2,0,0,1,11.14,1.07,15.2,15.2,0,0,0-3.49,6,27.42,27.42,0,0,0-1.21,9.4,28.14,28.14,0,0,1-.27,6.71,9.16,9.16,0,0,0,3,7.79c-1.48,1.75-3,3.36-4.43,5.1-.67.81-1.48,1.61-2.55,1.34a5.5,5.5,0,0,1-2.69-2.55,40.85,40.85,0,0,1-4-9.67,71.71,71.71,0,0,1-2.69-12.08c-.27-3.09-.13-6.44,1.48-9.13A8.58,8.58,0,0,1,1514,287.65Z"/><path class="cls-40" d="M1545.31,301.48c1.34-.94,3.22-.81,4.7-.67-.13,2.15-.81,4.3-.54,6.58.27,2.69.94,5.64-.27,8.32-1.75-3.49-4-6.71-4.7-10.61A4.36,4.36,0,0,1,1545.31,301.48Zm.54.54c-.4.4,0,.94.4,1.07a1.6,1.6,0,0,0,2.28-1.34A3.18,3.18,0,0,0,1545.85,302Z"/><path class="cls-40" d="M1522.09,303a10.2,10.2,0,0,1,5.77-1.88,2.42,2.42,0,0,1,2.28,1.88c.94,3.76,1.21,7.92-.54,11.55a23.56,23.56,0,0,0-1.61,4.3,6.59,6.59,0,0,1-6.18-5.37c-.4-1.61.13-3.22.13-4.83A40,40,0,0,0,1522.09,303Zm4.83-.81c-.27.13-.54.27-.54.54a1.69,1.69,0,0,0,2.55,1.07c.4-.27.81-.81.4-1.21A2.6,2.6,0,0,0,1526.92,302.15Z"/><path class="cls-40" d="M1549.34,321.08c.4-.27,1.07-.67,1.61-.27,2.15,1.21,4.7.54,7.12.27a9.69,9.69,0,0,1-5.37,2.28,7.6,7.6,0,0,1-3.89-.27A2.72,2.72,0,0,1,1549.34,321.08Z"/><path class="cls-40" d="M1527.19,323.77c1.21-.67,1.75-2.15,3-3,1.21-.13,2.28,1.75,1.21,2.69a6.79,6.79,0,0,1-8.46,1.61C1524.23,324.57,1525.84,324.57,1527.19,323.77Z"/><path d="M1538.47,284.43a26.63,26.63,0,0,1,11.28-.67,17.61,17.61,0,0,1,9.13,4.7,9,9,0,0,1,2.55,3.76c.81,2.69.4,5.37,0,8.06a58.63,58.63,0,0,1-6.85,18c1.48,0,2.82-.4,4.3-.54a3.08,3.08,0,0,1,3.22,2.15c.4,1.48-.54,3-1.61,3.89-3,2.55-7,3.36-10.61,3.22-.27,3.89-.27,7.79-1.88,11.41a9.48,9.48,0,0,1-3.36,3.89,12.25,12.25,0,0,1-4.7,1.61,7.61,7.61,0,0,1-5.37-.94,7.19,7.19,0,0,1-2.82-4c-1.21-3.36-1.07-6.85-1.34-10.34a10.77,10.77,0,0,1-7.92.13,5.62,5.62,0,0,1-2.42-1.48,5.69,5.69,0,0,1-4.83,1.21c-2.15-.54-3.63-2.42-4.83-4.16a42,42,0,0,1-4.3-10.47,79.85,79.85,0,0,1-2.82-12.75c-.27-3.89,0-7.92,2.15-11.28a12,12,0,0,1,7.65-5.24c4.43-.94,9,0,13.16,1.21a15.74,15.74,0,0,1,4.16-1.61A26.74,26.74,0,0,1,1538.47,284.43Zm-.13,1.61c-.27.13-.67-.13-.94-.13a14.25,14.25,0,0,0-10.74,1.61,27.26,27.26,0,0,0-11.81-1.75,10.48,10.48,0,0,0-7.65,4.16c-2.15,3.22-2.42,7.25-2.15,10.88a87.5,87.5,0,0,0,3.36,14.5,37.28,37.28,0,0,0,3.89,8.46c.94,1.21,2.15,2.55,3.76,2.69a4.33,4.33,0,0,0,3.63-1.75c1.61-1.88,3.09-3.63,4.7-5.37a10.51,10.51,0,0,0,3.36.94c-.67.81-1.21,1.75-2.15,2-1.34.54-3,.4-4.16,1.34a1.4,1.4,0,0,0-.13,2.15c1.07,1.07,2.82,1.34,4.3,1.48a8,8,0,0,0,5.91-2,86.44,86.44,0,0,0,.4,10.2,7.54,7.54,0,0,0,2.55,5.24,6.58,6.58,0,0,0,5.24,1.21,12.52,12.52,0,0,0,5-2,8.28,8.28,0,0,0,2.42-5.1c.54-3.36.94-6.71,1.34-10.2,3.76.67,8.06-.13,10.88-2.82.54-.54,1.21-1.61.54-2.28s-1.61-.54-2.42-.4c-1.88.4-4,.81-5.91-.13a58.49,58.49,0,0,0,7.52-17.32,31.32,31.32,0,0,0,.94-7.12,7.7,7.7,0,0,0-1.07-3.89,15.69,15.69,0,0,0-8.19-5.5A29.88,29.88,0,0,0,1538.33,286Z"/></g></svg>